<?xml version="1.0" standalone="no"?>
<!DOCTYPE svg PUBLIC "-//W3C//DTD SVG 1.1//EN" "http://www.w3.org/Graphics/SVG/1.1/DTD/svg11.dtd" >
<svg xmlns="http://www.w3.org/2000/svg" xmlns:xlink="http://www.w3.org/1999/xlink" version="1.1">
<metadata></metadata>
<defs>
<font id="ca_gingermintregular" horiz-adv-x="1988" >
<font-face units-per-em="2048" ascent="1638" descent="-410" />
<missing-glyph horiz-adv-x="614" />
<glyph horiz-adv-x="0" />
<glyph horiz-adv-x="682" />
<glyph unicode=" "  horiz-adv-x="614" />
<glyph unicode="&#x09;" horiz-adv-x="614" />
<glyph unicode="&#xa0;" horiz-adv-x="614" />
<glyph unicode="!" horiz-adv-x="880" d="M102 197l74 73h-74v1153l220 219h456v-1153l-73 -73h73v-457l-219 -219h-457v457zM371 8h356v357h-356v-357zM371 539h356v1052h-356v-1052z" />
<glyph unicode="," horiz-adv-x="880" d="M98 188l221 220h457v-408q0 -72 -56 -162t-136.5 -165.5t-168 -134.5t-151.5 -77l-104 197q8 4 25 11t21.5 10t13 10.5t12 17t6.5 25.5h-140v456zM369 0h143q0 -117 -63 -147l61 -113q34 10 69.5 31.5t69 53t55 78t21.5 97.5v356h-356v-356z" />
<glyph unicode="-" horiz-adv-x="1761" d="M102 451v456l220 219h1337v-456l-217 -219h-1340zM371 719h1239v356h-1239v-356z" />
<glyph unicode="." horiz-adv-x="880" d="M102 197l220 219h456v-457l-219 -219h-457v457zM371 8h356v357h-356v-357z" />
<glyph unicode="0" d="M102 496v178q4 157 57 282.5t173 280.5q86 111 190 198.5t237 147t263 59.5h152q156 0 288.5 -60t222.5 -163t143 -241t58 -293v-178q0 -153 -51 -290t-127 -237q-85 -112 -202 -210t-263.5 -165t-277.5 -67h-152q-156 0 -288.5 60t-223 163.5t-143 241.5t-56.5 293z M360 707q6 -196 87.5 -356.5t232 -256.5t342.5 -96h152q145 0 268 56t207.5 152t134 225.5t53.5 275.5v178q-4 146 -53.5 275.5t-134 225.5t-207.5 151.5t-268 55.5h-152q-192 0 -342.5 -96t-232 -256t-87.5 -356v-178zM838 631v332q0 110 64.5 185t168.5 75h53 q103 0 168.5 -75t65.5 -183v-338q0 -108 -65 -182t-169 -74h-53q-104 0 -168.5 74.5t-64.5 185.5zM887 631q0 -104 55.5 -158.5t157.5 -54.5v336q0 103 -56 158t-157 51v-332z" />
<glyph unicode="1" horiz-adv-x="1396" d="M102 807v553l220 219l972 107v-1688l-219 -217h-594v1063zM371 1077l379 35v-1063h493v1585l-872 -106v-451z" />
<glyph unicode=":" horiz-adv-x="880" d="M102 186l220 217h456v-456l-219 -217h-457v456zM102 457v456l220 220h456v-457l-219 -219h-457zM371 -2h356v356h-356v-356zM371 725h356v356h-356v-356z" />
<glyph unicode=";" horiz-adv-x="880" d="M98 188l221 220h457v-408q0 -72 -56 -162t-136.5 -165.5t-168 -134.5t-151.5 -77l-104 197q8 4 25 11t21.5 10t13 10.5t12 17t6.5 25.5h-140v456zM102 457v456l220 220h456v-457l-219 -219h-457zM369 0h143q0 -117 -63 -147l61 -113q34 10 69.5 31.5t69 53t55 78 t21.5 97.5v356h-356v-356zM371 725h356v356h-356v-356z" />
<glyph unicode="A" horiz-adv-x="2082" d="M51 -262l567 1685l220 219h626l568 -1685l-217 -219h-603l-71 246h-260l-9 -27l-219 -219h-602zM340 6h494l69 248h496l69 -248h494l-532 1585h-558zM1004 610l147 520l147 -520h-294z" />
<glyph unicode="B" horiz-adv-x="1882" d="M102 -262v1685l222 219h831q102 0 201 -36t178.5 -101t128.5 -166t49 -221q0 -176 -121 -309q189 -141 189 -375l-2 -35q-4 -75 -36 -138.5t-87 -129.5q-62 -73 -128.5 -136t-150.5 -124.5t-179 -97t-187 -35.5h-908zM373 6h858q65 0 133 17t131.5 51.5t114 81t83 111 t36.5 136.5v33q0 240 -216 363q148 136 148 321q0 106 -43.5 196.5t-115 149.5t-162 92t-185.5 33h-782v-1585zM885 293v403h168q100 0 168.5 -60t68.5 -140t-68.5 -141.5t-168.5 -61.5h-168zM885 924v403h168q100 0 168.5 -60.5t68.5 -140.5q0 -81 -68 -141.5t-169 -60.5 h-168zM936 344h63q-22 36 -63 59v-59zM936 975h63q-22 36 -63 59v-59z" />
<glyph unicode="C" horiz-adv-x="1830" d="M102 586q0 333 185 563l205 205q110 138 271.5 213t348.5 75q176 0 329.5 -65t262.5 -188l25 -25l-248 -422l-211 -211l-39 82q-40 84 -111 133t-153 49q-30 0 -68 -10q-29 -76 -29 -156v-67q0 -160 92 -268.5t216 -108.5q82 0 153 49t111 133l39 82l248 -422l-238 -235 q-129 -131 -272 -192.5t-318 -61.5q-132 0 -252.5 37t-220 110t-172.5 174t-113.5 236.5t-40.5 290.5zM360 795q0 -183 59 -335t161 -252.5t239 -156t293 -55.5q166 0 309.5 61t247.5 176l-184 314q-46 -97 -128 -154t-179 -57q-148 0 -251.5 124.5t-103.5 301.5v67 q0 177 103.5 301.5t251.5 124.5q96 0 178 -57.5t129 -153.5l184 314q-104 115 -247 175t-310 60q-156 0 -293 -55.5t-239 -156t-161 -252.5t-59 -334z" />
<glyph unicode="D" horiz-adv-x="1900" d="M102 -262v1685l220 219h729q150 0 287.5 -51.5t238.5 -138.5t161 -210t60 -259v-446q-1 -114 -41 -229t-117 -217t-179.5 -181t-238.5 -125.5t-284 -46.5h-836zM371 6h680q137 0 263.5 43t222 118.5t153 186t57.5 236.5v393q0 165 -93 305t-253.5 221.5t-349.5 81.5h-680 v-1585zM834 362v873h182q120 0 204.5 -73.5t84.5 -176.5l-2 -395q-11 -94 -87.5 -161t-183.5 -67h-198zM885 414h149v352q0 62 -41 113.5t-108 74.5v-540z" />
<glyph unicode="E" d="M102 -262v1685l220 219h1564v-456l-219 -219h-147v-385l-168 -168h534v-457l-219 -219h-1565zM371 6h1464v356h-971v269h604v356h-604v248h971v356h-1464v-1585z" />
<glyph unicode="F" d="M102 -262v1685l220 219h1564v-456l-219 -219h-147v-385l-220 -220h-385v-405l-219 -219h-594zM371 6h493v625h604v356h-604v248h971v356h-1464v-1585z" />
<glyph unicode="G" horiz-adv-x="2041" d="M102 586q0 333 185 563q27 26 90.5 90.5t99.5 99.5t92 83.5t107 82.5q202 137 436 137q176 0 329.5 -65t262.5 -188l25 -25l-236 -401h446v-377l-163 -164q-8 -33 -20 -66t-23.5 -58t-32.5 -57t-34 -50.5t-41 -52t-40.5 -47.5t-46.5 -50.5t-45 -48.5 q-122 -133 -267 -193.5t-325 -60.5q-132 0 -252.5 37t-220 110t-172.5 174t-113.5 236.5t-40.5 290.5zM360 795q0 -162 59.5 -309.5t160 -254.5t240 -170t292.5 -63q182 0 325 68.5t224.5 198.5t81.5 302v68h149v278h-784v-278h152v-156q0 -32 -24 -54t-58 -22 q-148 0 -251.5 124.5t-103.5 301.5t103.5 301.5t251.5 124.5q96 0 178 -57.5t129 -153.5l184 314q-102 115 -246 175t-311 60q-153 0 -292.5 -63t-240 -169.5t-160 -254.5t-59.5 -311zM870 829q0 -17 4 -49v-4l185 187l37 2q-62 32 -125 32q-34 0 -72 -10q-29 -76 -29 -158z " />
<glyph unicode="H" horiz-adv-x="2111" d="M102 -262v1685l220 219h593v-491h281v272l219 219h594v-1685l-217 -219h-596v737h-281v-518l-219 -219h-594zM371 6h493v737h602v-737h494v1585h-494v-491h-602v491h-493v-1585z" />
<glyph unicode="I" horiz-adv-x="1017" d="M102 -262v1685l220 219h593v-1685l-219 -219h-594zM371 6h493v1585h-493v-1585z" />
<glyph unicode="J" horiz-adv-x="2226" d="M102 432l224 221l430 301l16 -75q27 -125 100.5 -216t161.5 -132.5t180 -41.5h80v930l224 223h606v-847q0 -229 -86 -418q-77 -171 -269 -371q-133 -138 -284 -203t-334 -65h-123q-221 0 -399.5 68.5t-313 217.5t-202.5 371zM385 633q96 -313 320 -467t546 -154h121 q314 0 506.5 214.5t192.5 568.5v796h-502v-796q0 -184 -65 -270.5t-181 -86.5h-109q-60 0 -121 16.5t-120.5 52t-109 85t-87.5 121t-55 155.5z" />
<glyph unicode="K" horiz-adv-x="2168" d="M102 -262v1685l220 219h593v-294l302 294h849l-610 -624l608 -1061l-219 -219h-758l-172 350v-131l-219 -219h-594zM371 6h493v563l140 121l333 -684h641l-587 1022l542 563h-698l-371 -354v354h-493v-1585z" />
<glyph unicode="L" horiz-adv-x="1882" d="M102 -262v1685l220 219h665v-1228h793v-457l-219 -219h-1459zM371 6h1358v356h-793v1229h-565v-1585z" />
<glyph unicode="M" horiz-adv-x="2455" d="M102 -262v1685l220 219h622l393 -487l394 487h622v-1685l-217 -219h-577v704l-222 -270l-217 -217l-221 270v-268l-219 -219h-578zM371 6h477v848l489 -602l490 602v-848h477v1585h-549l-418 -518l-417 518h-549v-1585z" />
<glyph unicode="N" horiz-adv-x="2314" d="M102 -262v1685l220 219h616l549 -493v274l219 219h506v-1685l-219 -219h-475l-619 559v-340l-219 -219h-578zM371 6h477v811l907 -811h408v1585h-408v-751l-835 751h-549v-1585z" />
<glyph unicode="O" d="M102 496q0 140 7 226t32 174.5t69.5 164.5t121.5 176q86 111 190 198.5t237 147t263 59.5h152q156 0 288.5 -60t222.5 -163t143 -241t58 -293v-178q0 -153 -51 -290t-127 -237q-85 -112 -202 -210t-263.5 -165t-277.5 -67h-152q-156 0 -290 60.5t-225.5 163t-143.5 241.5 t-52 293zM360 707q0 -146 48.5 -276t134 -225.5t210 -151.5t269.5 -56h152q145 0 268 56t207.5 152t134 225.5t53.5 275.5v178q0 195 -82.5 356t-235 256.5t-345.5 95.5h-152q-193 0 -345.5 -95.5t-234.5 -256.5t-82 -356v-178zM838 631v332q0 110 64.5 185t168.5 75h53 q103 0 168.5 -75t65.5 -183v-338q0 -108 -65 -182t-169 -74h-53q-104 0 -168.5 74.5t-64.5 185.5zM887 631q0 -104 55.5 -158.5t157.5 -54.5v336q0 100 -52 154.5t-147 54.5h-14v-332z" />
<glyph unicode="P" horiz-adv-x="2007" d="M102 -262v1685l220 219h835q201 0 372.5 -86.5t273.5 -238t102 -332.5q-1 -115 -40.5 -237.5t-116.5 -236.5t-179.5 -205t-239.5 -145.5t-285 -54.5h-129v-149l-219 -219h-594zM371 6h493v371h293q189 0 349.5 81.5t253.5 221.5t93 305t-93 304.5t-253.5 220.5t-349.5 81 h-786v-1585zM834 733v502h288q120 0 204.5 -73.5t84.5 -176.5q0 -102 -79.5 -177t-192.5 -75h-305zM885 782h256q-6 62 -46.5 106t-94.5 62.5t-115 18.5v-187z" />
<glyph unicode="Q" horiz-adv-x="2234" d="M102 479q0 191 15.5 299.5t64.5 214t154 240.5q64 82 141 153.5t166 131t191 93.5t202 34h152q134 0 251.5 -44t203.5 -121t147.5 -180t92.5 -224q30 -116 30 -241v-8v-127q0 -156 -52.5 -297t-129.5 -243q-67 -90 -131.5 -150t-165.5 -129q39 -57 118 -57q89 0 166.5 63 t77.5 154v119l336 -346l-4 -25q-34 -167 -173.5 -318t-326 -239t-362.5 -88q-273 0 -439.5 160t-208.5 436q-234 70 -375 273.5t-141 465.5zM362 786q0 -147 32 -275.5t94.5 -233.5t162.5 -178.5t230 -104.5q35 -286 196 -437t436 -151q135 0 253 44t203.5 134t109.5 213 l-236 242q-1 -74 -45 -136t-110 -95t-134 -33q-90 0 -141.5 56.5t-54.5 164.5q150 39 264.5 139.5t177 245.5t62.5 313v180q0 144 -49.5 275t-136.5 229t-214 156.5t-274 58.5h-152q-147 0 -272 -56.5t-210.5 -154t-135 -229t-53.5 -279.5l-1 -6v-13.5t-0.5 -19t-1 -24 t-0.5 -25.5zM850 616v336q0 113 65 189t170 76h54q106 0 171.5 -75.5t65.5 -185.5v-344q0 -110 -65.5 -185t-171.5 -75h-54q-105 0 -170 75.5t-65 188.5zM899 616q0 -95 51.5 -155t134.5 -60h29v342q0 95 -52 153t-136 58l-27 -2v-336z" />
<glyph unicode="R" horiz-adv-x="2007" d="M102 -262v1685l220 219h835q201 0 372.5 -86.5t273.5 -238t102 -332.5q-2 -153 -72 -316t-193 -292l209 -420l-219 -219h-596l-119 235v-16l-219 -219h-594zM371 6h493v371h232l178 -371h493l-231 467q146 83 231.5 218.5t85.5 293.5q0 165 -93 304.5t-253.5 220.5 t-349.5 81h-786v-1585zM834 733v236v266h288q120 0 204.5 -73.5t84.5 -176.5q0 -102 -79.5 -177t-192.5 -75h-305zM885 782h256q-6 62 -46.5 106t-94.5 62.5t-115 18.5v-187z" />
<glyph unicode="S" horiz-adv-x="1579" d="M102 909q0 216 125 348q70 75 209 207q95 94 230.5 136t273.5 42q54 0 100.5 -4.5t75 -8.5t74 -20t62.5 -22.5t77.5 -33.5t83.5 -37l-182 -357l-187 -186q124 -33 208 -79t133.5 -110t70.5 -141t21 -180q0 -54 -9.5 -104t-21.5 -88t-40.5 -82.5t-49.5 -73t-67 -75.5 t-73.5 -72.5t-87.5 -80.5q-162 -149 -536 -149q-127 0 -199.5 16t-191.5 68l141 387l213 213q112 -39 182 -47q-46 23 -123 47.5t-141 42.5t-135.5 53.5t-121 81t-82 125t-32.5 184.5zM365 1122q0 -65 17 -121t40.5 -95t63 -73.5t69.5 -53.5t75 -38t65.5 -25t54.5 -16 l43 -12q39 -10 59.5 -16t54 -16.5t51 -18.5t41.5 -20.5t37 -26t25.5 -31t18 -38.5t5.5 -46q0 -87 -64.5 -120t-207.5 -33q-122 0 -229 36l-109 -297q88 -39 155 -51t175 -12q318 0 471.5 109.5t153.5 355.5q0 166 -69.5 276t-234.5 160q-42 13 -102 28.5t-97 25t-79.5 26 t-66.5 34.5t-40 46.5t-16 66.5q0 86 65 128t168 42q50 0 95 -10t73.5 -22.5t81.5 -38.5l138 266q-15 6 -65 29.5t-69.5 30.5t-65 20t-94 17.5t-112.5 4.5q-67 0 -129.5 -8.5t-129.5 -28t-122 -55.5t-99.5 -86t-69.5 -125.5t-25 -167.5z" />
<glyph unicode="T" horiz-adv-x="2076" d="M102 907v516l220 219h1652v-516l-219 -219h-291v-950l-219 -219h-594v1169h-549zM371 1176h549v-1170h495v1170h508v415h-1552v-415z" />
<glyph unicode="U" horiz-adv-x="2050" d="M102 518v905l222 219h594v-983q0 -104 56 -161.5t159 -57.5v983l221 219h594v-831q0 -225 -84 -410q-55 -123 -161 -254t-218 -215q-204 -194 -494 -194h-155q-161 0 -299.5 62.5t-233 168.5t-148 248.5t-53.5 300.5zM373 739q0 -201 85 -368t242.5 -266t356.5 -99h155 q120 0 226.5 37t188 104t142 158t93 202t36.5 232v852h-495v-936q0 -111 -67 -187.5t-173 -76.5h-55q-107 0 -174.5 77t-67.5 191v932h-493v-852z" />
<glyph unicode="V" horiz-adv-x="2158" d="M102 1423l222 219h637l149 -524l88 305l219 219h639l-565 -1687l-221 -217h-602zM393 1591l531 -1585h530l531 1585h-529l-266 -929l-268 929h-529z" />
<glyph unicode="W" horiz-adv-x="3153" d="M51 1423l221 219h637l150 -524l88 305l219 219h639l152 -524l88 305l221 219h637l-563 -1687l-224 -217h-602l-174 520l-100 -303l-221 -217h-603zM342 1591l530 -1585h531l285 848l282 -848h531l530 1585h-528l-267 -929l-268 929h-563l-266 -929l-269 929h-528z" />
<glyph unicode="X" horiz-adv-x="2121" d="M102 -262l508 840l-508 841l220 219h682l116 -215l217 215h682l-508 -841l508 -840l-221 -219h-682l-112 219h-3l-215 -219h-684zM412 6h563l194 359l197 -359h563l-477 791l477 790h-563l-197 -358l-194 358h-563l477 -790z" />
<glyph unicode="Y" horiz-adv-x="2158" d="M102 1423l222 219h637l149 -415l88 196l219 219h639l-551 -1206v-479l-219 -219h-631v471zM393 1591l531 -1140v-445h530v445l531 1140h-529l-266 -708l-268 708h-529z" />
<glyph unicode="Z" d="M102 166l217 225l35 23l615 553h-867v456l222 219h1562v-430l-887 -798h887v-453l-219 -223h-1565v428zM373 6h1464v356h-969l969 873v356h-1464v-354h970l-970 -875v-356z" />
<glyph unicode="a" horiz-adv-x="2082" d="M51 -262l567 1685l220 219h626l568 -1685l-217 -219h-603l-71 246h-260l-9 -27l-219 -219h-602zM340 6h494l69 248h496l69 -248h494l-532 1585h-558zM1004 610l147 520l147 -520h-294z" />
<glyph unicode="b" horiz-adv-x="1882" d="M102 -262v1685l222 219h831q102 0 201 -36t178.5 -101t128.5 -166t49 -221q0 -176 -121 -309q189 -141 189 -375l-2 -35q-4 -75 -36 -138.5t-87 -129.5q-62 -73 -128.5 -136t-150.5 -124.5t-179 -97t-187 -35.5h-908zM373 6h858q65 0 133 17t131.5 51.5t114 81t83 111 t36.5 136.5v33q0 240 -216 363q148 136 148 321q0 106 -43.5 196.5t-115 149.5t-162 92t-185.5 33h-782v-1585zM885 293v403h168q100 0 168.5 -60t68.5 -140t-68.5 -141.5t-168.5 -61.5h-168zM885 924v403h168q100 0 168.5 -60.5t68.5 -140.5q0 -81 -68 -141.5t-169 -60.5 h-168zM936 344h63q-22 36 -63 59v-59zM936 975h63q-22 36 -63 59v-59z" />
<glyph unicode="c" horiz-adv-x="1830" d="M102 586q0 333 185 563l205 205q110 138 271.5 213t348.5 75q176 0 329.5 -65t262.5 -188l25 -25l-248 -422l-211 -211l-39 82q-40 84 -111 133t-153 49q-30 0 -68 -10q-29 -76 -29 -156v-67q0 -160 92 -268.5t216 -108.5q82 0 153 49t111 133l39 82l248 -422l-238 -235 q-129 -131 -272 -192.5t-318 -61.5q-132 0 -252.5 37t-220 110t-172.5 174t-113.5 236.5t-40.5 290.5zM360 795q0 -183 59 -335t161 -252.5t239 -156t293 -55.5q166 0 309.5 61t247.5 176l-184 314q-46 -97 -128 -154t-179 -57q-148 0 -251.5 124.5t-103.5 301.5v67 q0 177 103.5 301.5t251.5 124.5q96 0 178 -57.5t129 -153.5l184 314q-104 115 -247 175t-310 60q-156 0 -293 -55.5t-239 -156t-161 -252.5t-59 -334z" />
<glyph unicode="d" horiz-adv-x="1900" d="M102 -262v1685l220 219h729q150 0 287.5 -51.5t238.5 -138.5t161 -210t60 -259v-446q-1 -114 -41 -229t-117 -217t-179.5 -181t-238.5 -125.5t-284 -46.5h-836zM371 6h680q137 0 263.5 43t222 118.5t153 186t57.5 236.5v393q0 165 -93 305t-253.5 221.5t-349.5 81.5h-680 v-1585zM834 362v873h182q120 0 204.5 -73.5t84.5 -176.5l-2 -395q-11 -94 -87.5 -161t-183.5 -67h-198zM885 414h149v352q0 62 -41 113.5t-108 74.5v-540z" />
<glyph unicode="e" d="M102 -262v1685l220 219h1564v-456l-219 -219h-147v-385l-168 -168h534v-457l-219 -219h-1565zM371 6h1464v356h-971v269h604v356h-604v248h971v356h-1464v-1585z" />
<glyph unicode="f" d="M102 -262v1685l220 219h1564v-456l-219 -219h-147v-385l-220 -220h-385v-405l-219 -219h-594zM371 6h493v625h604v356h-604v248h971v356h-1464v-1585z" />
<glyph unicode="g" horiz-adv-x="2041" d="M102 586q0 333 185 563q27 26 90.5 90.5t99.5 99.5t92 83.5t107 82.5q202 137 436 137q176 0 329.5 -65t262.5 -188l25 -25l-236 -401h446v-377l-163 -164q-8 -33 -20 -66t-23.5 -58t-32.5 -57t-34 -50.5t-41 -52t-40.5 -47.5t-46.5 -50.5t-45 -48.5 q-122 -133 -267 -193.5t-325 -60.5q-132 0 -252.5 37t-220 110t-172.5 174t-113.5 236.5t-40.5 290.5zM360 795q0 -162 59.5 -309.5t160 -254.5t240 -170t292.5 -63q182 0 325 68.5t224.5 198.5t81.5 302v68h149v278h-784v-278h152v-156q0 -32 -24 -54t-58 -22 q-148 0 -251.5 124.5t-103.5 301.5t103.5 301.5t251.5 124.5q96 0 178 -57.5t129 -153.5l184 314q-102 115 -246 175t-311 60q-153 0 -292.5 -63t-240 -169.5t-160 -254.5t-59.5 -311zM870 829q0 -17 4 -49v-4l185 187l37 2q-62 32 -125 32q-34 0 -72 -10q-29 -76 -29 -158z " />
<glyph unicode="h" horiz-adv-x="2111" d="M102 -262v1685l220 219h593v-491h281v272l219 219h594v-1685l-217 -219h-596v737h-281v-518l-219 -219h-594zM371 6h493v737h602v-737h494v1585h-494v-491h-602v491h-493v-1585z" />
<glyph unicode="i" horiz-adv-x="1017" d="M102 -262v1685l220 219h593v-1685l-219 -219h-594zM371 6h493v1585h-493v-1585z" />
<glyph unicode="j" horiz-adv-x="2226" d="M102 432l224 221l430 301l16 -75q27 -125 100.5 -216t161.5 -132.5t180 -41.5h80v930l224 223h606v-847q0 -229 -86 -418q-77 -171 -269 -371q-133 -138 -284 -203t-334 -65h-123q-221 0 -399.5 68.5t-313 217.5t-202.5 371zM385 633q96 -313 320 -467t546 -154h121 q314 0 506.5 214.5t192.5 568.5v796h-502v-796q0 -184 -65 -270.5t-181 -86.5h-109q-60 0 -121 16.5t-120.5 52t-109 85t-87.5 121t-55 155.5z" />
<glyph unicode="k" horiz-adv-x="2168" d="M102 -262v1685l220 219h593v-294l302 294h849l-610 -624l608 -1061l-219 -219h-758l-172 350v-131l-219 -219h-594zM371 6h493v563l140 121l333 -684h641l-587 1022l542 563h-698l-371 -354v354h-493v-1585z" />
<glyph unicode="l" horiz-adv-x="1882" d="M102 -262v1685l220 219h665v-1228h793v-457l-219 -219h-1459zM371 6h1358v356h-793v1229h-565v-1585z" />
<glyph unicode="m" horiz-adv-x="2455" d="M102 -262v1685l220 219h622l393 -487l394 487h622v-1685l-217 -219h-577v704l-222 -270l-217 -217l-221 270v-268l-219 -219h-578zM371 6h477v848l489 -602l490 602v-848h477v1585h-549l-418 -518l-417 518h-549v-1585z" />
<glyph unicode="n" horiz-adv-x="2314" d="M102 -262v1685l220 219h616l549 -493v274l219 219h506v-1685l-219 -219h-475l-619 559v-340l-219 -219h-578zM371 6h477v811l907 -811h408v1585h-408v-751l-835 751h-549v-1585z" />
<glyph unicode="o" d="M102 496q0 140 7 226t32 174.5t69.5 164.5t121.5 176q86 111 190 198.5t237 147t263 59.5h152q156 0 288.5 -60t222.5 -163t143 -241t58 -293v-178q0 -153 -51 -290t-127 -237q-85 -112 -202 -210t-263.5 -165t-277.5 -67h-152q-156 0 -290 60.5t-225.5 163t-143.5 241.5 t-52 293zM360 707q0 -146 48.5 -276t134 -225.5t210 -151.5t269.5 -56h152q145 0 268 56t207.5 152t134 225.5t53.5 275.5v178q0 195 -82.5 356t-235 256.5t-345.5 95.5h-152q-193 0 -345.5 -95.5t-234.5 -256.5t-82 -356v-178zM838 631v332q0 110 64.5 185t168.5 75h53 q103 0 168.5 -75t65.5 -183v-338q0 -108 -65 -182t-169 -74h-53q-104 0 -168.5 74.5t-64.5 185.5zM887 631q0 -104 55.5 -158.5t157.5 -54.5v336q0 100 -52 154.5t-147 54.5h-14v-332z" />
<glyph unicode="p" horiz-adv-x="2007" d="M102 -262v1685l220 219h835q201 0 372.5 -86.5t273.5 -238t102 -332.5q-1 -115 -40.5 -237.5t-116.5 -236.5t-179.5 -205t-239.5 -145.5t-285 -54.5h-129v-149l-219 -219h-594zM371 6h493v371h293q189 0 349.5 81.5t253.5 221.5t93 305t-93 304.5t-253.5 220.5t-349.5 81 h-786v-1585zM834 733v502h288q120 0 204.5 -73.5t84.5 -176.5q0 -102 -79.5 -177t-192.5 -75h-305zM885 782h256q-6 62 -46.5 106t-94.5 62.5t-115 18.5v-187z" />
<glyph unicode="q" horiz-adv-x="2234" d="M102 479q0 191 15.5 299.5t64.5 214t154 240.5q64 82 141 153.5t166 131t191 93.5t202 34h152q134 0 251.5 -44t203.5 -121t147.5 -180t92.5 -224q30 -116 30 -241v-8v-127q0 -156 -52.5 -297t-129.5 -243q-67 -90 -131.5 -150t-165.5 -129q39 -57 118 -57q89 0 166.5 63 t77.5 154v119l336 -346l-4 -25q-34 -167 -173.5 -318t-326 -239t-362.5 -88q-273 0 -439.5 160t-208.5 436q-234 70 -375 273.5t-141 465.5zM362 786q0 -147 32 -275.5t94.5 -233.5t162.5 -178.5t230 -104.5q35 -286 196 -437t436 -151q135 0 253 44t203.5 134t109.5 213 l-236 242q-1 -74 -45 -136t-110 -95t-134 -33q-90 0 -141.5 56.5t-54.5 164.5q150 39 264.5 139.5t177 245.5t62.5 313v180q0 144 -49.5 275t-136.5 229t-214 156.5t-274 58.5h-152q-147 0 -272 -56.5t-210.5 -154t-135 -229t-53.5 -279.5l-1 -6v-13.5t-0.5 -19t-1 -24 t-0.5 -25.5zM850 616v336q0 113 65 189t170 76h54q106 0 171.5 -75.5t65.5 -185.5v-344q0 -110 -65.5 -185t-171.5 -75h-54q-105 0 -170 75.5t-65 188.5zM899 616q0 -95 51.5 -155t134.5 -60h29v342q0 95 -52 153t-136 58l-27 -2v-336z" />
<glyph unicode="r" horiz-adv-x="2007" d="M102 -262v1685l220 219h835q201 0 372.5 -86.5t273.5 -238t102 -332.5q-2 -153 -72 -316t-193 -292l209 -420l-219 -219h-596l-119 235v-16l-219 -219h-594zM371 6h493v371h232l178 -371h493l-231 467q146 83 231.5 218.5t85.5 293.5q0 165 -93 304.5t-253.5 220.5 t-349.5 81h-786v-1585zM834 733v236v266h288q120 0 204.5 -73.5t84.5 -176.5q0 -102 -79.5 -177t-192.5 -75h-305zM885 782h256q-6 62 -46.5 106t-94.5 62.5t-115 18.5v-187z" />
<glyph unicode="s" horiz-adv-x="1579" d="M102 909q0 216 125 348q70 75 209 207q95 94 230.5 136t273.5 42q54 0 100.5 -4.5t75 -8.5t74 -20t62.5 -22.5t77.5 -33.5t83.5 -37l-182 -357l-187 -186q124 -33 208 -79t133.5 -110t70.5 -141t21 -180q0 -54 -9.5 -104t-21.5 -88t-40.5 -82.5t-49.5 -73t-67 -75.5 t-73.5 -72.5t-87.5 -80.5q-162 -149 -536 -149q-127 0 -199.5 16t-191.5 68l141 387l213 213q112 -39 182 -47q-46 23 -123 47.5t-141 42.5t-135.5 53.5t-121 81t-82 125t-32.5 184.5zM365 1122q0 -65 17 -121t40.5 -95t63 -73.5t69.5 -53.5t75 -38t65.5 -25t54.5 -16 l43 -12q39 -10 59.5 -16t54 -16.5t51 -18.5t41.5 -20.5t37 -26t25.5 -31t18 -38.5t5.5 -46q0 -87 -64.5 -120t-207.5 -33q-122 0 -229 36l-109 -297q88 -39 155 -51t175 -12q318 0 471.5 109.5t153.5 355.5q0 166 -69.5 276t-234.5 160q-42 13 -102 28.5t-97 25t-79.5 26 t-66.5 34.5t-40 46.5t-16 66.5q0 86 65 128t168 42q50 0 95 -10t73.5 -22.5t81.5 -38.5l138 266q-15 6 -65 29.5t-69.5 30.5t-65 20t-94 17.5t-112.5 4.5q-67 0 -129.5 -8.5t-129.5 -28t-122 -55.5t-99.5 -86t-69.5 -125.5t-25 -167.5z" />
<glyph unicode="t" horiz-adv-x="2076" d="M102 907v516l220 219h1652v-516l-219 -219h-291v-950l-219 -219h-594v1169h-549zM371 1176h549v-1170h495v1170h508v415h-1552v-415z" />
<glyph unicode="u" horiz-adv-x="2050" d="M102 518v905l222 219h594v-983q0 -104 56 -161.5t159 -57.5v983l221 219h594v-831q0 -225 -84 -410q-55 -123 -161 -254t-218 -215q-204 -194 -494 -194h-155q-161 0 -299.5 62.5t-233 168.5t-148 248.5t-53.5 300.5zM373 739q0 -201 85 -368t242.5 -266t356.5 -99h155 q120 0 226.5 37t188 104t142 158t93 202t36.5 232v852h-495v-936q0 -111 -67 -187.5t-173 -76.5h-55q-107 0 -174.5 77t-67.5 191v932h-493v-852z" />
<glyph unicode="v" horiz-adv-x="2158" d="M102 1423l222 219h637l149 -524l88 305l219 219h639l-565 -1687l-221 -217h-602zM393 1591l531 -1585h530l531 1585h-529l-266 -929l-268 929h-529z" />
<glyph unicode="w" horiz-adv-x="3153" d="M51 1423l221 219h637l150 -524l88 305l219 219h639l152 -524l88 305l221 219h637l-563 -1687l-224 -217h-602l-174 520l-100 -303l-221 -217h-603zM342 1591l530 -1585h531l285 848l282 -848h531l530 1585h-528l-267 -929l-268 929h-563l-266 -929l-269 929h-528z" />
<glyph unicode="x" horiz-adv-x="2121" d="M102 -262l508 840l-508 841l220 219h682l116 -215l217 215h682l-508 -841l508 -840l-221 -219h-682l-112 219h-3l-215 -219h-684zM412 6h563l194 359l197 -359h563l-477 791l477 790h-563l-197 -358l-194 358h-563l477 -790z" />
<glyph unicode="y" horiz-adv-x="2158" d="M102 1423l222 219h637l149 -415l88 196l219 219h639l-551 -1206v-479l-219 -219h-631v471zM393 1591l531 -1140v-445h530v445l531 1140h-529l-266 -708l-268 708h-529z" />
<glyph unicode="z" d="M102 166l217 225l35 23l615 553h-867v456l222 219h1562v-430l-887 -798h887v-453l-219 -223h-1565v428zM373 6h1464v356h-969l969 873v356h-1464v-354h970l-970 -875v-356z" />
<glyph unicode="&#xa8;" horiz-adv-x="1474" d="M104 1481v456l220 220h456v-76l76 76h457v-457l-219 -219h-457v75l-76 -75h-457zM373 1749h356v356h-356v-356zM905 1749h357v356h-357v-356z" />
<glyph unicode="&#xad;" horiz-adv-x="1761" d="M102 451v456l220 219h1337v-456l-217 -219h-1340zM371 719h1239v356h-1239v-356z" />
<glyph unicode="&#xc4;" horiz-adv-x="2082" d="M51 -262l567 1685l60 60h-236v456l220 220h456v-76l76 76h457v-457l-156 -156l537 -1589l-217 -219h-603l-71 246h-260l-9 -27l-219 -219h-602zM340 6h494l69 248h496l69 -248h494l-532 1585h-558zM711 1751h356v356h-356v-356zM1004 610l147 520l147 -520h-294z M1243 1751h356v356h-356v-356z" />
<glyph unicode="&#xd6;" d="M102 496q0 140 7 226t32 174.5t69.5 164.5t121.5 176q108 139 250 246h-189v456l219 220h457v-76l76 76h457v-457l-127 -127q188 -89 299 -275t112 -415v-178q0 -153 -51 -290t-127 -237q-85 -112 -202 -210t-263.5 -165t-277.5 -67h-152q-156 0 -290 60.5t-225.5 163 t-143.5 241.5t-52 293zM360 707q0 -146 48.5 -276t134 -225.5t210 -151.5t269.5 -56h152q145 0 268 56t207.5 152t134 225.5t53.5 275.5v178q0 195 -82.5 356t-235 256.5t-345.5 95.5h-152q-193 0 -345.5 -95.5t-234.5 -256.5t-82 -356v-178zM662 1751h356v356h-356v-356z M838 631v332q0 110 64.5 185t168.5 75h53q103 0 168.5 -75t65.5 -183v-338q0 -108 -65 -182t-169 -74h-53q-104 0 -168.5 74.5t-64.5 185.5zM887 631q0 -104 55.5 -158.5t157.5 -54.5v336q0 100 -52 154.5t-147 54.5h-14v-332zM1194 1751h356v356h-356v-356z" />
<glyph unicode="&#xdc;" horiz-adv-x="2050" d="M102 518v905l222 219h108v297l219 220h457v-76l76 76h456v-457l-59 -60h367v-831q0 -225 -84 -410q-55 -123 -161 -254t-218 -215q-204 -194 -494 -194h-155q-161 0 -299.5 62.5t-233 168.5t-148 248.5t-53.5 300.5zM373 739q0 -201 85 -368t242.5 -266t356.5 -99h155 q120 0 226.5 37t188 104t142 158t93 202t36.5 232v852h-495v-936q0 -111 -67 -187.5t-173 -76.5h-55q-107 0 -174.5 77t-67.5 191v932h-493v-852zM700 1751h357v356h-357v-356zM918 659q0 -104 56 -161.5t159 -57.5v983l59 60h-227v76l-47 -48v-852zM1233 1751h356v356h-356 v-356z" />
<glyph unicode="&#xe4;" horiz-adv-x="2082" d="M51 -262l567 1685l60 60h-236v456l220 220h456v-76l76 76h457v-457l-156 -156l537 -1589l-217 -219h-603l-71 246h-260l-9 -27l-219 -219h-602zM340 6h494l69 248h496l69 -248h494l-532 1585h-558zM711 1751h356v356h-356v-356zM1004 610l147 520l147 -520h-294z M1243 1751h356v356h-356v-356z" />
<glyph unicode="&#xf6;" d="M102 496q0 140 7 226t32 174.5t69.5 164.5t121.5 176q108 139 250 246h-189v456l219 220h457v-76l76 76h457v-457l-127 -127q186 -88 294.5 -273.5t116.5 -416.5v-178q0 -153 -51 -290t-127 -237q-85 -112 -202 -210t-263.5 -165t-277.5 -67h-152q-156 0 -290 60.5 t-225.5 163t-143.5 241.5t-52 293zM360 707q0 -146 48.5 -276t134 -225.5t210 -151.5t269.5 -56h152q145 0 268 56t207.5 152t134 225.5t53.5 275.5v178q0 195 -82.5 356t-235 256.5t-345.5 95.5h-152q-193 0 -345.5 -95.5t-234.5 -256.5t-82 -356v-178zM662 1751h356v356 h-356v-356zM838 631v332q0 110 64.5 185t168.5 75h53q103 0 168.5 -75t65.5 -183v-338q0 -108 -65 -182t-169 -74h-53q-104 0 -168.5 74.5t-64.5 185.5zM887 631q0 -104 55.5 -158.5t157.5 -54.5v336q0 100 -52 154.5t-147 54.5h-14v-332zM1194 1751h356v356h-356v-356z" />
<glyph unicode="&#xfc;" horiz-adv-x="2050" d="M102 518v905l222 219h108v297l219 220h457v-76l76 76h456v-457l-59 -60h367v-831q0 -225 -84 -410q-55 -123 -161 -254t-218 -215q-204 -194 -494 -194h-155q-161 0 -299.5 62.5t-233 168.5t-148 248.5t-53.5 300.5zM373 739q0 -201 85 -368t242.5 -266t356.5 -99h155 q120 0 226.5 37t188 104t142 158t93 202t36.5 232v852h-495v-936q0 -111 -67 -187.5t-173 -76.5h-55q-107 0 -174.5 77t-67.5 191v932h-493v-852zM700 1751h357v356h-357v-356zM918 659q0 -104 56 -161.5t159 -57.5v983l59 60h-227v76l-47 -48v-852zM1233 1751h356v356h-356 v-356z" />
<glyph unicode="&#x2000;" horiz-adv-x="1079" />
<glyph unicode="&#x2001;" horiz-adv-x="2159" />
<glyph unicode="&#x2002;" horiz-adv-x="1079" />
<glyph unicode="&#x2003;" horiz-adv-x="2159" />
<glyph unicode="&#x2004;" horiz-adv-x="719" />
<glyph unicode="&#x2005;" horiz-adv-x="539" />
<glyph unicode="&#x2006;" horiz-adv-x="359" />
<glyph unicode="&#x2007;" horiz-adv-x="359" />
<glyph unicode="&#x2008;" horiz-adv-x="269" />
<glyph unicode="&#x2009;" horiz-adv-x="431" />
<glyph unicode="&#x200a;" horiz-adv-x="119" />
<glyph unicode="&#x2010;" horiz-adv-x="1761" d="M102 451v456l220 219h1337v-456l-217 -219h-1340zM371 719h1239v356h-1239v-356z" />
<glyph unicode="&#x2011;" horiz-adv-x="1761" d="M102 451v456l220 219h1337v-456l-217 -219h-1340zM371 719h1239v356h-1239v-356z" />
<glyph unicode="&#x2012;" horiz-adv-x="1761" d="M102 451v456l220 219h1337v-456l-217 -219h-1340zM371 719h1239v356h-1239v-356z" />
<glyph unicode="&#x2013;" horiz-adv-x="1228" d="M102 451v456l145 219h879v-456l-143 -219h-881zM279 719h815v356h-815v-356z" />
<glyph unicode="&#x2014;" horiz-adv-x="2433" d="M102 451v456l220 219h2009v-456l-217 -219h-2012zM371 719h1910v356h-1910v-356z" />
<glyph unicode="&#x2018;" horiz-adv-x="880" d="M102 975v407q0 72 56 162t136 165.5t167 134t151 77.5l107 -197q-9 -4 -22 -9.5t-18.5 -8t-13 -7.5t-11.5 -10.5t-8 -15t-7 -22.5h139v-457l-219 -219h-457zM362 1235h357v356h-144q0 118 64 148l-61 114q-34 -10 -69 -31.5t-69 -53.5t-56 -78.5t-22 -98.5v-356z" />
<glyph unicode="&#x2019;" horiz-adv-x="878" d="M98 969v456l221 220h457v-408q0 -72 -56 -162t-136.5 -165.5t-168 -134t-151.5 -77.5l-104 197q8 4 25 11t21.5 10t13 10.5t12 17t6.5 25.5h-140zM369 1237h143q0 -117 -63 -147l61 -113q34 10 69.5 31.5t69 53t55 78t21.5 97.5v356h-356v-356z" />
<glyph unicode="&#x201a;" horiz-adv-x="878" d="M98 186l221 220h457v-408q0 -72 -56 -162t-136.5 -165.5t-168 -134t-151.5 -77.5l-104 197q8 4 25 11t21.5 10t13 10.5t12 17t6.5 25.5h-140v456zM369 -2h143q0 -118 -63 -148l61 -112q34 10 69.5 31.5t69 53t55 78t21.5 97.5v356h-356v-356z" />
<glyph unicode="&#x201c;" horiz-adv-x="1476" d="M102 975v407q0 72 56 162t136 165.5t167 134t151 77.5l107 -197q-9 -4 -22 -9.5t-18.5 -8t-13 -7.5t-11.5 -10.5t-8 -15t-7 -22.5h139v-80q80 116 213 219.5t226 130.5l104 -197q-9 -5 -24.5 -11.5t-21 -9.5t-13.5 -10t-12 -16.5t-7 -25.5h139v-457l-219 -219h-458v145 l-146 -145h-457zM362 1235h357v356h-144q0 118 64 148l-61 114q-34 -10 -69 -31.5t-69 -53.5t-56 -78.5t-22 -98.5v-356zM967 1235h356v356h-145q4 119 65 148l-61 114q-78 -23 -146.5 -93t-68.5 -169v-356z" />
<glyph unicode="&#x201d;" horiz-adv-x="1476" d="M98 963v456l221 219h457v-139l139 139h459v-407q0 -72 -56 -162t-136.5 -165.5t-168 -134t-151.5 -77.5l-104 197q9 4 24.5 11t21 10t13.5 10.5t12 17t7 25.5h-140v69q-82 -114 -211 -213.5t-221 -126.5l-104 197q8 4 25 11t21.5 10t13 10.5t12 17t6.5 25.5h-140z M369 1231h143q0 -118 -63 -148l61 -112q34 10 69.5 31.5t69 53t55 78t21.5 97.5v356h-356v-356zM967 1231h143q0 -118 -63 -148l61 -112q33 10 68.5 31.5t69.5 53t55.5 78t21.5 97.5v356h-356v-356z" />
<glyph unicode="&#x201e;" horiz-adv-x="1476" d="M98 186l221 220h457v-140l139 140h459v-408q0 -72 -56 -162t-136.5 -165.5t-168 -134.5t-151.5 -77l-104 197q9 4 24.5 11t21 10t13.5 10.5t12 17t7 25.5h-140v69q-82 -114 -211 -213.5t-221 -126.5l-104 197q8 4 25 11t21.5 10t13 10.5t12 17t6.5 25.5h-140v456zM369 -2 h143q0 -118 -63 -148l61 -112q34 10 69.5 31.5t69 53t55 78t21.5 97.5v356h-356v-356zM967 -2h143q0 -118 -63 -148l61 -112q33 10 68.5 31.5t69.5 53t55.5 78t21.5 97.5v356h-356v-356z" />
<glyph unicode="&#x202f;" horiz-adv-x="431" />
<glyph unicode="&#x205f;" horiz-adv-x="539" />
<glyph unicode="&#x25fc;" horiz-adv-x="1638" d="M0 0v1638h1638v-1638h-1638z" />
</font>
</defs>
</svg>
